<svg width="32" height="38" viewBox="0 0 32 38" fill="none" xmlns="http://www.w3.org/2000/svg">
<mask id="path-1-inside-1_841_5363" fill="white">
<path fill-rule="evenodd" clip-rule="evenodd" d="M8 0C3.58172 0 0 3.58172 0 8V24C0 28.4183 3.58172 32 8 32H13.5359L15.2679 35C16.0378 36.3333 17.9622 36.3333 18.7321 35L20.4641 32H24C28.4183 32 32 28.4183 32 24V8C32 3.58172 28.4183 0 24 0H8Z"/>
</mask>
<path fill-rule="evenodd" clip-rule="evenodd" d="M8 0C3.58172 0 0 3.58172 0 8V24C0 28.4183 3.58172 32 8 32H13.5359L15.2679 35C16.0378 36.3333 17.9622 36.3333 18.7321 35L20.4641 32H24C28.4183 32 32 28.4183 32 24V8C32 3.58172 28.4183 0 24 0H8Z" fill="#FCFCFC"/>
<path d="M13.5359 32L14.4019 31.5L14.1132 31H13.5359V32ZM15.2679 35L14.4019 35.5L15.2679 35ZM18.7321 35L19.5981 35.5H19.5981L18.7321 35ZM20.4641 32V31H19.8868L19.5981 31.5L20.4641 32ZM1 8C1 4.13401 4.13401 1 8 1V-1C3.02944 -1 -1 3.02944 -1 8H1ZM1 24V8H-1V24H1ZM8 31C4.13401 31 1 27.866 1 24H-1C-1 28.9706 3.02944 33 8 33V31ZM13.5359 31H8V33H13.5359V31ZM12.6699 32.5L14.4019 35.5L16.134 34.5L14.4019 31.5L12.6699 32.5ZM14.4019 35.5C15.5566 37.5 18.4434 37.5 19.5981 35.5L17.866 34.5C17.4811 35.1667 16.5189 35.1667 16.134 34.5L14.4019 35.5ZM19.5981 35.5L21.3301 32.5L19.5981 31.5L17.866 34.5L19.5981 35.5ZM24 31H20.4641V33H24V31ZM31 24C31 27.866 27.866 31 24 31V33C28.9706 33 33 28.9706 33 24H31ZM31 8V24H33V8H31ZM24 1C27.866 1 31 4.13401 31 8H33C33 3.02944 28.9706 -1 24 -1V1ZM8 1H24V-1H8V1Z" fill="#2F80ED" mask="url(#path-1-inside-1_841_5363)"/>
<path d="M10 18H24L19.5 13.5L24 9H10V25" stroke="#2F80ED" stroke-width="2" stroke-linecap="round" stroke-linejoin="round"/>
</svg>
