<svg width="32" height="38" viewBox="0 0 32 38" fill="none" xmlns="http://www.w3.org/2000/svg">
<mask id="path-1-inside-1_841_5357" fill="white">
<path fill-rule="evenodd" clip-rule="evenodd" d="M8 0C3.58172 0 0 3.58172 0 8V24C0 28.4183 3.58172 32 8 32H13.5359L15.2679 35C16.0378 36.3333 17.9622 36.3333 18.7321 35L20.4641 32H24C28.4183 32 32 28.4183 32 24V8C32 3.58172 28.4183 0 24 0H8Z"/>
</mask>
<path fill-rule="evenodd" clip-rule="evenodd" d="M8 0C3.58172 0 0 3.58172 0 8V24C0 28.4183 3.58172 32 8 32H13.5359L15.2679 35C16.0378 36.3333 17.9622 36.3333 18.7321 35L20.4641 32H24C28.4183 32 32 28.4183 32 24V8C32 3.58172 28.4183 0 24 0H8Z" fill="#FCFCFC"/>
<path d="M13.5359 32L14.4019 31.5L14.1132 31H13.5359V32ZM15.2679 35L14.4019 35.5L15.2679 35ZM18.7321 35L19.5981 35.5H19.5981L18.7321 35ZM20.4641 32V31H19.8868L19.5981 31.5L20.4641 32ZM1 8C1 4.13401 4.13401 1 8 1V-1C3.02944 -1 -1 3.02944 -1 8H1ZM1 24V8H-1V24H1ZM8 31C4.13401 31 1 27.866 1 24H-1C-1 28.9706 3.02944 33 8 33V31ZM13.5359 31H8V33H13.5359V31ZM12.6699 32.5L14.4019 35.5L16.134 34.5L14.4019 31.5L12.6699 32.5ZM14.4019 35.5C15.5566 37.5 18.4434 37.5 19.5981 35.5L17.866 34.5C17.4811 35.1667 16.5189 35.1667 16.134 34.5L14.4019 35.5ZM19.5981 35.5L21.3301 32.5L19.5981 31.5L17.866 34.5L19.5981 35.5ZM24 31H20.4641V33H24V31ZM31 24C31 27.866 27.866 31 24 31V33C28.9706 33 33 28.9706 33 24H31ZM31 8V24H33V8H31ZM24 1C27.866 1 31 4.13401 31 8H33C33 3.02944 28.9706 -1 24 -1V1ZM8 1H24V-1H8V1Z" fill="#2F80ED" mask="url(#path-1-inside-1_841_5357)"/>
<path d="M13 14C13 14.7956 13.3161 15.5587 13.8787 16.1213C14.4413 16.6839 15.2044 17 16 17C16.7956 17 17.5587 16.6839 18.1213 16.1213C18.6839 15.5587 19 14.7956 19 14C19 13.2043 18.6839 12.4412 18.1213 11.8786C17.5587 11.316 16.7956 11 16 11C15.2044 11 14.4413 11.316 13.8787 11.8786C13.3161 12.4412 13 13.2043 13 14Z" stroke="#2F80ED" stroke-width="2" stroke-linecap="round" stroke-linejoin="round"/>
<path d="M21.657 19.657L17.414 23.9C17.039 24.2746 16.5306 24.485 16.0005 24.485C15.4704 24.485 14.962 24.2746 14.587 23.9L10.343 19.657C9.22422 18.5381 8.46234 17.1127 8.15369 15.5608C7.84504 14.009 8.00349 12.4005 8.60901 10.9387C9.21452 9.4769 10.2399 8.22749 11.5555 7.34846C12.8711 6.46943 14.4178 6.00024 16 6.00024C17.5822 6.00024 19.1289 6.46943 20.4445 7.34846C21.7601 8.22749 22.7855 9.4769 23.391 10.9387C23.9965 12.4005 24.155 14.009 23.8463 15.5608C23.5377 17.1127 22.7758 18.5381 21.657 19.657Z" stroke="#2F80ED" stroke-width="2" stroke-linecap="round" stroke-linejoin="round"/>
</svg>
